<svg width="222" height="254" viewBox="0 0 222 254" fill="none" xmlns="http://www.w3.org/2000/svg">
<path d="M39.2488 219.173C19.7547 217.725 4.89357 199.64 1.17949 183.745C-0.51397 176.504 0.650286 49.4414 1.17949 38.3377C1.7087 27.234 14.9245 0.268433 39.2488 0.268433H182.539C201.047 0.268433 221.667 20.3591 221.667 45.7418C221.667 71.1245 221.753 166.752 221.667 174.229C221.599 180.002 215.768 211.836 185.676 217.263C175.606 219.077 39.2488 219.173 39.2488 219.173Z" fill="url(#paint0_linear_2008_4607)" stroke="url(#paint1_linear_2008_4607)" stroke-width="0.481098" stroke-miterlimit="10"/>
<path d="M46.5621 204.571C29.1993 203.316 15.9643 187.642 12.6591 173.873C11.1533 167.599 12.1877 57.4854 12.6591 47.8634C13.1306 38.2415 24.9031 14.8698 46.5621 14.8698H174.178C190.661 14.8698 209.024 32.2807 209.024 54.2765C209.024 76.2723 209.101 159.146 209.024 165.622C208.961 170.625 203.77 198.216 176.973 202.916C168.006 204.49 46.5621 204.571 46.5621 204.571Z" fill="url(#paint2_linear_2008_4607)" stroke="url(#paint3_linear_2008_4607)" stroke-width="0.481098" stroke-miterlimit="10"/>
<path d="M29.0259 106.577V111.402C29.0259 154.789 64.1977 189.961 107.584 189.961C150.971 189.961 186.143 154.789 186.143 111.402V106.577C186.143 63.19 150.971 28.0182 107.584 28.0182C64.1977 28.0182 29.0259 63.19 29.0259 106.577Z" fill="url(#paint4_linear_2008_4607)" stroke="url(#paint5_linear_2008_4607)" stroke-width="0.481098" stroke-miterlimit="10"/>
<path d="M178.2 129.539L175.818 133.109H39.331L36.9496 129.539L34.5681 125.57H180.581L178.2 129.539Z" fill="url(#paint6_linear_2008_4607)" stroke="black" stroke-width="0.240549" stroke-miterlimit="10"/>
<path d="M36.9492 129.539H178.2" stroke="black" stroke-width="0.240549" stroke-miterlimit="10"/>
<path d="M85.6124 138.56C85.6027 136.905 87.1182 136.53 87.0412 136.583H99.2467C99.2467 136.583 100.416 136.886 100.536 138.17C100.632 139.185 100.377 140.47 99.5979 140.499C98.9051 140.528 86.6419 140.431 86.6419 140.431C86.6419 140.431 85.622 140.225 85.6124 138.56Z" stroke="url(#paint7_linear_2008_4607)" stroke-width="0.240549" stroke-miterlimit="10"/>
<path d="M96.1248 167.305L94.9558 142.019H96.7695L98.7613 176.552L96.8609 176.201L96.3606 168.768H90.8616L90.5682 175.032L88.6919 174.503L90.7991 142.019H92.5551L91.1503 167.248L96.1248 167.305Z" fill="url(#paint8_linear_2008_4607)" stroke="url(#paint9_linear_2008_4607)" stroke-width="0.240549" stroke-miterlimit="10"/>
<path d="M86.5505 147.595V142.019H88.3498V147.595" fill="url(#paint10_linear_2008_4607)"/>
<path d="M86.5505 147.595V142.019H88.3498V147.595" stroke="url(#paint11_linear_2008_4607)" stroke-width="0.240549" stroke-miterlimit="10"/>
<path d="M50.6802 138.56C50.6706 136.905 52.1861 136.53 52.1091 136.583H64.3145C64.3145 136.583 65.4836 136.886 65.6039 138.17C65.7001 139.185 65.4451 140.47 64.6657 140.499C63.973 140.528 51.7098 140.431 51.7098 140.431C51.7098 140.431 50.6898 140.225 50.6802 138.56Z" fill="#020226" stroke="url(#paint12_linear_2008_4607)" stroke-width="0.240549" stroke-miterlimit="10"/>
<path d="M68.1487 138.56C68.1391 136.905 69.6546 136.53 69.5776 136.583H81.783C81.783 136.583 82.9521 136.886 83.0724 138.17C83.1686 139.185 82.9136 140.47 82.1342 140.499C81.4415 140.528 69.1783 140.431 69.1783 140.431C69.1783 140.431 68.1583 140.225 68.1487 138.56Z" stroke="url(#paint13_linear_2008_4607)" stroke-width="0.240549" stroke-miterlimit="10"/>
<path d="M149.666 138.56C149.656 136.905 151.172 136.53 151.095 136.583H163.3C163.3 136.583 164.469 136.886 164.589 138.17C164.686 139.185 164.431 140.47 163.651 140.499C162.959 140.528 150.695 140.431 150.695 140.431C150.695 140.431 149.675 140.225 149.666 138.56Z" stroke="url(#paint14_linear_2008_4607)" stroke-width="0.240549" stroke-miterlimit="10"/>
<path d="M131.908 138.56C131.899 136.905 133.414 136.53 133.337 136.583H145.543C145.543 136.583 146.712 136.886 146.832 138.17C146.928 139.185 146.673 140.47 145.894 140.499C145.201 140.528 132.938 140.431 132.938 140.431C132.938 140.431 131.918 140.225 131.908 138.56Z" stroke="url(#paint15_linear_2008_4607)" stroke-width="0.240549" stroke-miterlimit="10"/>
<path d="M114.151 138.56C114.142 136.905 115.657 136.53 115.58 136.583H127.785C127.785 136.583 128.955 136.886 129.075 138.17C129.171 139.185 128.916 140.47 128.137 140.499C127.444 140.528 115.181 140.431 115.181 140.431C115.181 140.431 114.161 140.225 114.151 138.56Z" stroke="url(#paint16_linear_2008_4607)" stroke-width="0.240549" stroke-miterlimit="10"/>
<path d="M118.462 169.09V176.552H116.177L118.462 142.019H120.141L118.77 167.257L123.648 167.411L122.272 142.019H124.192L126.342 174.724L124.379 175.191L123.913 168.831L118.462 169.09Z" fill="url(#paint17_linear_2008_4607)" stroke="url(#paint18_linear_2008_4607)" stroke-width="0.240549" stroke-miterlimit="10"/>
<path d="M126.905 147.595L126.343 142.019H128.214V147.595" fill="url(#paint19_linear_2008_4607)"/>
<path d="M126.905 147.595L126.343 142.019H128.214V147.595" stroke="url(#paint20_linear_2008_4607)" stroke-width="0.240549" stroke-miterlimit="10"/>
<path d="M51.4355 152.276L52.4555 142.019H54.2019L53.4706 154.749" fill="url(#paint21_linear_2008_4607)"/>
<path d="M51.4355 152.276L52.4555 142.019H54.2019L53.4706 154.749" stroke="black" stroke-width="0.240549" stroke-miterlimit="10"/>
<path d="M55.51 157.082L56.6743 142.019H58.156L57.5499 158.684L55.51 157.082Z" fill="url(#paint22_linear_2008_4607)" stroke="url(#paint23_linear_2008_4607)" stroke-width="0.481098" stroke-miterlimit="10"/>
<path d="M60.7542 142.019L61.7741 161.888L63.9583 163.053L62.3562 142.019H60.7542Z" fill="url(#paint24_linear_2008_4607)" stroke="url(#paint25_linear_2008_4607)" stroke-width="0.240549" stroke-miterlimit="10"/>
<path d="M151.349 163.053L152.951 142.019H154.702L153.682 161.888L151.349 163.053Z" fill="url(#paint26_linear_2008_4607)" stroke="url(#paint27_linear_2008_4607)" stroke-width="0.240549" stroke-miterlimit="10"/>
<path d="M157.758 158.684L157.137 142.019H158.778L159.533 157.453L157.758 158.684Z" fill="url(#paint28_linear_2008_4607)" stroke="url(#paint29_linear_2008_4607)" stroke-width="0.240549" stroke-miterlimit="10"/>
<path d="M162.069 154.484L161.039 142.019H163.171L164.051 152.536L162.069 154.484Z" fill="url(#paint30_linear_2008_4607)" stroke="url(#paint31_linear_2008_4607)" stroke-width="0.240549" stroke-miterlimit="10"/>
<path d="M79.0936 167.305L77.9245 142.019H79.7383L81.7252 176.552L79.8249 176.201L79.3293 168.768H73.8256L73.5321 175.032L71.6606 174.503L73.7679 142.019H75.5239L74.1191 167.248L79.0936 167.305Z" fill="url(#paint32_linear_2008_4607)" stroke="url(#paint33_linear_2008_4607)" stroke-width="0.240549" stroke-miterlimit="10"/>
<path d="M69.5149 147.595V142.019H71.319V147.595" fill="url(#paint34_linear_2008_4607)"/>
<path d="M69.5149 147.595V142.019H71.319V147.595" stroke="url(#paint35_linear_2008_4607)" stroke-width="0.240549" stroke-miterlimit="10"/>
<path d="M135.647 169.09V176.552H133.357L135.647 142.019H137.321L135.95 167.257L140.828 167.411L139.457 142.019H141.372L143.527 174.724L141.559 175.191L141.093 168.831L135.647 169.09Z" fill="url(#paint36_linear_2008_4607)" stroke="url(#paint37_linear_2008_4607)" stroke-width="0.240549" stroke-miterlimit="10"/>
<path d="M144.09 147.595L143.527 142.019H145.399V147.595" fill="url(#paint38_linear_2008_4607)"/>
<path d="M144.09 147.595L143.527 142.019H145.399V147.595" stroke="url(#paint39_linear_2008_4607)" stroke-width="0.240549" stroke-miterlimit="10"/>
<path d="M56.8333 125.57V88.4872C56.8333 88.4872 55.5103 78.6729 44.421 78.6729C34.5681 78.6729 33.6011 88.6893 33.6011 88.6893V125.57H56.8333Z" stroke="#440BD4" stroke-width="0.240549" stroke-miterlimit="10"/>
<path d="M181.568 125.57V88.4872C181.568 88.4872 180.245 78.6729 169.155 78.6729C159.302 78.6729 158.335 88.6893 158.335 88.6893V125.57H181.568Z" stroke="#440BD4" stroke-width="0.240549" stroke-miterlimit="10"/>
<path d="M56.8333 98.3018H33.6011V100.303H56.8333V98.3018Z" fill="url(#paint40_linear_2008_4607)" stroke="black" stroke-width="0.240549" stroke-miterlimit="10"/>
<path d="M56.8333 113.731H33.6011V116.136H56.8333V113.731Z" fill="url(#paint41_linear_2008_4607)" stroke="black" stroke-width="0.240549" stroke-miterlimit="10"/>
<path d="M37.0509 90.3636V86.3561H39.6536V90.3636C39.6536 90.3636 41.323 90.6378 41.323 93.3416V97.9794H35.6942V93.5629C35.6942 93.5629 35.367 91.0853 37.0461 90.3636H37.0509Z" fill="black" stroke="url(#paint42_linear_2008_4607)" stroke-width="0.240549" stroke-miterlimit="10"/>
<path d="M43.8723 90.5849L44.5795 89.6997V86.3609H46.6771V89.6997L47.3939 90.5849V97.9794H43.8723V90.5849Z" fill="black" stroke="url(#paint43_linear_2008_4607)" stroke-width="0.240549" stroke-miterlimit="10"/>
<path d="M50.9973 90.4743H51.4977V88.9251L50.9973 88.4873L51.4977 87.5492H53.2633L53.5375 88.3767L53.2056 89.0117L53.2633 90.4743H53.8117V97.9794H50.9973V90.4743Z" fill="black" stroke="url(#paint44_linear_2008_4607)" stroke-width="0.240549" stroke-miterlimit="10"/>
<path d="M43.1602 108.082L43.9876 107.086V102.122H45.9217V107.086L46.9753 108.082V113.408H43.1602V108.082Z" fill="black" stroke="url(#paint45_linear_2008_4607)" stroke-width="0.240549" stroke-miterlimit="10"/>
<path d="M37.541 106.379H35.8091V113.062H37.541V106.379Z" fill="black" stroke="url(#paint46_linear_2008_4607)" stroke-width="0.240549" stroke-miterlimit="10"/>
<path d="M39.4464 101.453H37.5413V106.379H39.4464V101.453Z" fill="black" stroke="url(#paint47_linear_2008_4607)" stroke-width="0.240549" stroke-miterlimit="10"/>
<path d="M41.2981 106.379H39.4507V113.062H41.2981V106.379Z" fill="black" stroke="url(#paint48_linear_2008_4607)" stroke-width="0.240549" stroke-miterlimit="10"/>
<path d="M50.9976 106.726H48.9866V113.408H50.9976V106.726L52.4072 106.033V102.122H50.6945L50.9976 106.726Z" fill="black"/>
<path d="M50.9976 106.726H48.9866V113.408H50.9976V106.726ZM50.9976 106.726L52.4072 106.033V102.122H50.6945L50.9976 106.726Z" stroke="url(#paint49_linear_2008_4607)" stroke-width="0.240549" stroke-miterlimit="10"/>
<path d="M54.3121 106.726H52.407V113.408H54.3121V106.726Z" fill="black" stroke="url(#paint50_linear_2008_4607)" stroke-width="0.240549" stroke-miterlimit="10"/>
<path d="M61.3745 125.57V91.6192C61.3745 91.6192 61.5189 82.4206 55.5388 78.0811L49.0969 74.4056C49.0969 74.4056 62.9477 35.0277 107.574 35.6387C151.354 36.2401 165.763 74.0014 165.763 74.0014L159.932 77.8791C153.004 83.4213 153.89 88.5739 153.89 88.5739V125.575" fill="url(#paint51_linear_2008_4607)"/>
<path d="M61.3745 125.57V91.6192C61.3745 91.6192 61.5189 82.4206 55.5388 78.0811L49.0969 74.4056C49.0969 74.4056 62.9477 35.0277 107.574 35.6387C151.354 36.2401 165.763 74.0014 165.763 74.0014L159.932 77.8791C153.004 83.4213 153.89 88.5739 153.89 88.5739V125.575" stroke="#440BD4" stroke-width="0.240549" stroke-miterlimit="10"/>
<path d="M159.933 77.8742L131.909 77.5952L107.431 66.2028L81.7257 77.5952L55.5396 78.0811" stroke="#440BD4" stroke-width="0.240549" stroke-miterlimit="10"/>
<path d="M65.5314 50.8992V65.3465L66.4407 65.2984C66.4407 65.2984 70.8668 67.2613 68.7018 71.7355H60.0517C60.0517 71.7355 57.8386 67.8146 62.6641 65.2984H63.8091V52.5109" fill="black"/>
<path d="M65.5314 50.8992V65.3465L66.4407 65.2984C66.4407 65.2984 70.8668 67.2613 68.7018 71.7355H60.0517C60.0517 71.7355 57.8386 67.8146 62.6641 65.2984H63.8091V52.5109" stroke="black" stroke-width="0.240549" stroke-miterlimit="10"/>
<path d="M111.876 53.4731C112.535 47.8538 109.124 46.8868 109.124 46.8868V43.4374C109.124 43.2449 108.191 42.7013 108.191 42.7013V35.6436L106.083 35.6292V42.7975L105.29 43.3411V46.8965C105.29 46.8965 102.1 47.4642 102.177 53.4683" fill="black"/>
<path d="M111.876 53.4731C112.535 47.8538 109.124 46.8868 109.124 46.8868V43.4374C109.124 43.2449 108.191 42.7013 108.191 42.7013V35.6436L106.083 35.6292V42.7975L105.29 43.3411V46.8965C105.29 46.8965 102.1 47.4642 102.177 53.4683" stroke="black" stroke-width="0.240549" stroke-miterlimit="10"/>
<path d="M60.0566 71.7355C60.0566 71.7355 64.3817 76.0077 68.7068 71.7355Z" fill="white"/>
<path d="M60.0566 71.7355C60.0566 71.7355 64.3817 76.0077 68.7068 71.7355" stroke="white" stroke-width="0.240549" stroke-miterlimit="10"/>
<path d="M181.568 97.2H158.335V99.2014H181.568V97.2Z" fill="url(#paint52_linear_2008_4607)" stroke="black" stroke-width="0.240549" stroke-miterlimit="10"/>
<path d="M181.568 112.629H158.335V115.034H181.568V112.629Z" fill="url(#paint53_linear_2008_4607)" stroke="black" stroke-width="0.240549" stroke-miterlimit="10"/>
<path d="M162.738 89.3004V85.2928H165.34V89.3004C165.34 89.3004 167.01 89.5746 167.01 92.2784V96.9162H161.381V92.4997C161.381 92.4997 161.054 90.022 162.733 89.3004H162.738Z" fill="black" stroke="url(#paint54_linear_2008_4607)" stroke-width="0.240549" stroke-miterlimit="10"/>
<path d="M169.954 89.3774L170.656 88.4921V85.1533H172.754V88.4921L173.47 89.3774V96.7718H169.954V89.3774Z" fill="black" stroke="url(#paint55_linear_2008_4607)" stroke-width="0.240549" stroke-miterlimit="10"/>
<path d="M175.732 89.4063H176.232V87.8619L175.732 87.4193L176.232 86.4812H177.998L178.272 87.3087L177.94 87.9437L177.998 89.4063H178.546V96.9114H175.732V89.4063Z" fill="black" stroke="url(#paint56_linear_2008_4607)" stroke-width="0.240549" stroke-miterlimit="10"/>
<path d="M167.895 107.005L168.722 106.009V101.044H170.657V106.009L171.71 107.005V112.33H167.895V107.005Z" fill="black" stroke="url(#paint57_linear_2008_4607)" stroke-width="0.240549" stroke-miterlimit="10"/>
<path d="M162.222 105.648H160.49V112.331H162.222V105.648Z" fill="black" stroke="url(#paint58_linear_2008_4607)" stroke-width="0.240549" stroke-miterlimit="10"/>
<path d="M164.181 100.722H162.275V105.648H164.181V100.722Z" fill="black" stroke="url(#paint59_linear_2008_4607)" stroke-width="0.240549" stroke-miterlimit="10"/>
<path d="M165.985 105.648H164.137V112.331H165.985V105.648Z" fill="black" stroke="url(#paint60_linear_2008_4607)" stroke-width="0.240549" stroke-miterlimit="10"/>
<path d="M175.732 105.648H173.721V112.33H175.732V105.648L177.142 104.955V101.044H175.429L175.732 105.648Z" fill="black"/>
<path d="M175.732 105.648H173.721V112.33H175.732V105.648ZM175.732 105.648L177.142 104.955V101.044H175.429L175.732 105.648Z" stroke="url(#paint61_linear_2008_4607)" stroke-width="0.240549" stroke-miterlimit="10"/>
<path d="M179.379 105.648H177.473V112.331H179.379V105.648Z" fill="black" stroke="url(#paint62_linear_2008_4607)" stroke-width="0.240549" stroke-miterlimit="10"/>
<path d="M145.36 49.0037V63.451L146.27 63.4029C146.27 63.4029 150.696 65.3658 148.531 69.84H139.881C139.881 69.84 137.668 65.9191 142.493 63.4029H143.638V50.6153" fill="black"/>
<path d="M145.36 49.0037V63.451L146.27 63.4029C146.27 63.4029 150.696 65.3658 148.531 69.84H139.881C139.881 69.84 137.668 65.9191 142.493 63.4029H143.638V50.6153" stroke="black" stroke-width="0.240549" stroke-miterlimit="10"/>
<path d="M139.885 69.8352C139.885 69.8352 144.21 74.1074 148.535 69.8352Z" fill="white"/>
<path d="M139.885 69.8352C139.885 69.8352 144.21 74.1074 148.535 69.8352" stroke="white" stroke-width="0.240549" stroke-miterlimit="10"/>
<path d="M102.181 53.473C102.181 53.473 107.074 57.7451 111.962 53.473Z" fill="white"/>
<path d="M102.181 53.473C102.181 53.473 107.074 57.7451 111.962 53.473" stroke="white" stroke-width="0.240549" stroke-miterlimit="10"/>
<path d="M89.9231 245.84C89.9231 246.617 89.7216 247.315 89.3184 247.935C88.9212 248.554 88.3369 249.039 87.5658 249.389C86.7946 249.74 85.8803 249.915 84.8228 249.915C83.555 249.915 82.5093 249.676 81.6855 249.196C81.1013 248.852 80.6251 248.393 80.2571 247.821C79.8949 247.242 79.7138 246.681 79.7138 246.138C79.7138 245.823 79.8218 245.554 80.038 245.332C80.26 245.104 80.5404 244.99 80.8793 244.99C81.1539 244.99 81.3846 245.078 81.5716 245.253C81.7644 245.428 81.928 245.688 82.0623 246.033C82.2259 246.442 82.4012 246.784 82.5881 247.058C82.7809 247.333 83.0497 247.561 83.3944 247.742C83.7391 247.917 84.1919 248.005 84.7527 248.005C85.5239 248.005 86.149 247.826 86.6281 247.47C87.113 247.108 87.3554 246.658 87.3554 246.12C87.3554 245.694 87.224 245.349 86.9611 245.086C86.704 244.818 86.3681 244.613 85.9533 244.473C85.5443 244.333 84.9952 244.184 84.3058 244.026C83.3827 243.81 82.6086 243.559 81.9835 243.272C81.3642 242.98 80.8705 242.586 80.5025 242.089C80.1402 241.587 79.9591 240.965 79.9591 240.223C79.9591 239.516 80.1519 238.888 80.5375 238.339C80.9231 237.789 81.481 237.369 82.2113 237.077C82.9416 236.779 83.8004 236.63 84.7878 236.63C85.5765 236.63 86.2571 236.729 86.8296 236.928C87.408 237.12 87.8871 237.38 88.2668 237.708C88.6466 238.029 88.9241 238.368 89.0994 238.724C89.2746 239.081 89.3623 239.428 89.3623 239.767C89.3623 240.077 89.2513 240.357 89.0292 240.608C88.8131 240.854 88.5414 240.976 88.2143 240.976C87.9163 240.976 87.6884 240.903 87.5307 240.757C87.3788 240.605 87.2123 240.36 87.0312 240.021C86.7975 239.536 86.5171 239.159 86.1899 238.891C85.8627 238.616 85.3369 238.479 84.6125 238.479C83.9406 238.479 83.3973 238.628 82.9825 238.926C82.5735 239.218 82.3691 239.571 82.3691 239.986C82.3691 240.243 82.4392 240.465 82.5794 240.652C82.7196 240.839 82.9124 241 83.1578 241.134C83.4031 241.268 83.6514 241.374 83.9027 241.45C84.1539 241.526 84.5687 241.637 85.1471 241.783C85.8715 241.952 86.5258 242.139 87.1101 242.343C87.7001 242.548 88.1996 242.796 88.6086 243.088C89.0234 243.38 89.3447 243.751 89.5726 244.201C89.8063 244.645 89.9231 245.192 89.9231 245.84ZM101.605 244.692H99.2211V248.329C99.2211 248.849 99.0984 249.243 98.853 249.512C98.6076 249.781 98.298 249.915 97.9241 249.915C97.5327 249.915 97.2172 249.784 96.9776 249.521C96.7381 249.252 96.6183 248.861 96.6183 248.346V238.444C96.6183 237.871 96.7498 237.462 97.0127 237.217C97.2756 236.971 97.6933 236.849 98.2659 236.849H101.605C102.592 236.849 103.352 236.925 103.883 237.077C104.409 237.223 104.862 237.465 105.242 237.804C105.627 238.143 105.919 238.558 106.118 239.048C106.317 239.539 106.416 240.091 106.416 240.705C106.416 242.013 106.013 243.007 105.206 243.684C104.4 244.356 103.2 244.692 101.605 244.692ZM100.974 238.803H99.2211V242.729H100.974C101.587 242.729 102.098 242.665 102.507 242.536C102.922 242.408 103.238 242.197 103.454 241.905C103.67 241.613 103.778 241.231 103.778 240.757C103.778 240.191 103.612 239.729 103.279 239.373C102.905 238.993 102.136 238.803 100.974 238.803ZM118.728 236.63C120.06 236.63 121.203 236.901 122.155 237.445C123.113 237.982 123.837 238.75 124.328 239.749C124.819 240.743 125.064 241.911 125.064 243.255C125.064 244.248 124.93 245.151 124.661 245.963C124.392 246.775 123.989 247.479 123.452 248.075C122.914 248.671 122.254 249.126 121.471 249.442C120.688 249.757 119.792 249.915 118.781 249.915C117.776 249.915 116.876 249.754 116.082 249.433C115.287 249.106 114.624 248.647 114.093 248.057C113.561 247.467 113.158 246.757 112.883 245.928C112.614 245.098 112.48 244.201 112.48 243.237C112.48 242.25 112.62 241.344 112.901 240.521C113.187 239.697 113.599 238.996 114.136 238.417C114.674 237.839 115.328 237.398 116.099 237.094C116.871 236.785 117.747 236.63 118.728 236.63ZM122.427 243.237C122.427 242.297 122.275 241.482 121.971 240.792C121.667 240.103 121.232 239.583 120.665 239.232C120.104 238.876 119.459 238.698 118.728 238.698C118.208 238.698 117.726 238.797 117.282 238.996C116.844 239.189 116.465 239.472 116.143 239.846C115.828 240.22 115.576 240.699 115.39 241.283C115.208 241.861 115.118 242.513 115.118 243.237C115.118 243.968 115.208 244.628 115.39 245.218C115.576 245.808 115.836 246.299 116.169 246.69C116.508 247.076 116.894 247.365 117.326 247.558C117.764 247.75 118.243 247.847 118.763 247.847C119.429 247.847 120.04 247.68 120.595 247.347C121.156 247.014 121.6 246.5 121.927 245.805C122.26 245.11 122.427 244.254 122.427 243.237ZM140.12 238.996H137.281V248.329C137.281 248.866 137.161 249.267 136.921 249.529C136.682 249.787 136.372 249.915 135.992 249.915C135.607 249.915 135.291 249.784 135.046 249.521C134.806 249.258 134.687 248.861 134.687 248.329V238.996H131.847C131.403 238.996 131.073 238.899 130.857 238.707C130.641 238.508 130.533 238.248 130.533 237.927C130.533 237.594 130.644 237.331 130.866 237.138C131.094 236.945 131.421 236.849 131.847 236.849H140.12C140.57 236.849 140.903 236.948 141.119 237.147C141.341 237.345 141.452 237.605 141.452 237.927C141.452 238.248 141.341 238.508 141.119 238.707C140.897 238.899 140.564 238.996 140.12 238.996Z" fill="white"/>
<defs>
<linearGradient id="paint0_linear_2008_4607" x1="111" y1="213.443" x2="111" y2="0.119297" gradientUnits="userSpaceOnUse">
<stop offset="0.07" stop-color="#04005E"/>
<stop offset="0.42" stop-color="#440BD4"/>
<stop offset="0.78" stop-color="#FF1987"/>
</linearGradient>
<linearGradient id="paint1_linear_2008_4607" x1="181.091" y1="219.413" x2="181.091" y2="0.0278794" gradientUnits="userSpaceOnUse">
<stop offset="0.07" stop-color="#04005E"/>
<stop offset="0.42" stop-color="#440BD4"/>
<stop offset="0.78" stop-color="#FF1987"/>
</linearGradient>
<linearGradient id="paint2_linear_2008_4607" x1="110.462" y1="204.571" x2="110.462" y2="14.8698" gradientUnits="userSpaceOnUse">
<stop offset="0.06" stop-color="#00F4FF" stop-opacity="0.8"/>
<stop offset="0.33" stop-color="#440BD4"/>
<stop offset="0.63" stop-color="#FF1987" stop-opacity="0.4"/>
</linearGradient>
<linearGradient id="paint3_linear_2008_4607" x1="110.462" y1="204.812" x2="110.462" y2="14.6292" gradientUnits="userSpaceOnUse">
<stop offset="0.07" stop-color="#04005E"/>
<stop offset="0.42" stop-color="#440BD4"/>
<stop offset="0.78" stop-color="#FF1987"/>
</linearGradient>
<linearGradient id="paint4_linear_2008_4607" x1="107.584" y1="189.961" x2="107.584" y2="28.0134" gradientUnits="userSpaceOnUse">
<stop offset="0.86" stop-color="#020226"/>
<stop offset="1" stop-color="#FF1987"/>
</linearGradient>
<linearGradient id="paint5_linear_2008_4607" x1="107.584" y1="190.201" x2="107.584" y2="27.7728" gradientUnits="userSpaceOnUse">
<stop offset="0.07" stop-color="#04005E"/>
<stop offset="0.42" stop-color="#440BD4"/>
<stop offset="0.78" stop-color="#FF1987"/>
</linearGradient>
<linearGradient id="paint6_linear_2008_4607" x1="34.5681" y1="129.342" x2="180.581" y2="129.342" gradientUnits="userSpaceOnUse">
<stop offset="0.06" stop-color="#00F4FF" stop-opacity="0.8"/>
<stop offset="0.33" stop-color="#440BD4"/>
<stop offset="0.63" stop-color="#FF1987" stop-opacity="0.4"/>
</linearGradient>
<linearGradient id="paint7_linear_2008_4607" x1="85.4921" y1="138.541" x2="100.676" y2="138.541" gradientUnits="userSpaceOnUse">
<stop offset="0.47" stop-color="#0000FF"/>
<stop offset="0.85" stop-color="#FF00FF"/>
</linearGradient>
<linearGradient id="paint8_linear_2008_4607" x1="88.6919" y1="159.286" x2="98.7613" y2="159.286" gradientUnits="userSpaceOnUse">
<stop offset="0.06" stop-color="#00F4FF" stop-opacity="0.8"/>
<stop offset="0.33" stop-color="#440BD4"/>
<stop offset="0.63" stop-color="#FF1987" stop-opacity="0.4"/>
</linearGradient>
<linearGradient id="paint9_linear_2008_4607" x1="88.5668" y1="159.3" x2="98.8912" y2="159.3" gradientUnits="userSpaceOnUse">
<stop offset="0.06" stop-color="#00F4FF" stop-opacity="0.8"/>
<stop offset="0.33" stop-color="#440BD4"/>
<stop offset="0.63" stop-color="#FF1987" stop-opacity="0.4"/>
</linearGradient>
<linearGradient id="paint10_linear_2008_4607" x1="86.5505" y1="144.809" x2="88.3498" y2="144.809" gradientUnits="userSpaceOnUse">
<stop offset="0.06" stop-color="#00F4FF" stop-opacity="0.8"/>
<stop offset="0.33" stop-color="#440BD4"/>
<stop offset="0.63" stop-color="#FF1987" stop-opacity="0.4"/>
</linearGradient>
<linearGradient id="paint11_linear_2008_4607" x1="86.4303" y1="144.747" x2="88.4701" y2="144.747" gradientUnits="userSpaceOnUse">
<stop offset="0.06" stop-color="#00F4FF" stop-opacity="0.8"/>
<stop offset="0.33" stop-color="#440BD4"/>
<stop offset="0.63" stop-color="#FF1987" stop-opacity="0.4"/>
</linearGradient>
<linearGradient id="paint12_linear_2008_4607" x1="50.5599" y1="-76.0004" x2="65.7482" y2="-76.0004" gradientUnits="userSpaceOnUse">
<stop offset="0.47" stop-color="#0000FF"/>
<stop offset="0.85" stop-color="#FF00FF"/>
</linearGradient>
<linearGradient id="paint13_linear_2008_4607" x1="68.0285" y1="-76.0005" x2="83.2119" y2="-76.0005" gradientUnits="userSpaceOnUse">
<stop offset="0.47" stop-color="#0000FF"/>
<stop offset="0.85" stop-color="#FF00FF"/>
</linearGradient>
<linearGradient id="paint14_linear_2008_4607" x1="149.546" y1="-76.0005" x2="164.729" y2="-76.0005" gradientUnits="userSpaceOnUse">
<stop offset="0.47" stop-color="#0000FF"/>
<stop offset="0.85" stop-color="#FF00FF"/>
</linearGradient>
<linearGradient id="paint15_linear_2008_4607" x1="131.788" y1="-76.0005" x2="146.972" y2="-76.0005" gradientUnits="userSpaceOnUse">
<stop offset="0.47" stop-color="#0000FF"/>
<stop offset="0.85" stop-color="#FF00FF"/>
</linearGradient>
<linearGradient id="paint16_linear_2008_4607" x1="114.031" y1="-76.0005" x2="129.214" y2="-76.0005" gradientUnits="userSpaceOnUse">
<stop offset="0.47" stop-color="#0000FF"/>
<stop offset="0.85" stop-color="#FF00FF"/>
</linearGradient>
<linearGradient id="paint17_linear_2008_4607" x1="116.177" y1="159.286" x2="126.342" y2="159.286" gradientUnits="userSpaceOnUse">
<stop offset="0.06" stop-color="#00F4FF" stop-opacity="0.8"/>
<stop offset="0.33" stop-color="#440BD4"/>
<stop offset="0.63" stop-color="#FF1987" stop-opacity="0.4"/>
</linearGradient>
<linearGradient id="paint18_linear_2008_4607" x1="116.047" y1="159.286" x2="126.472" y2="159.286" gradientUnits="userSpaceOnUse">
<stop offset="0.06" stop-color="#00F4FF" stop-opacity="0.8"/>
<stop offset="0.33" stop-color="#440BD4"/>
<stop offset="0.63" stop-color="#FF1987" stop-opacity="0.4"/>
</linearGradient>
<linearGradient id="paint19_linear_2008_4607" x1="126.343" y1="144.809" x2="128.214" y2="144.809" gradientUnits="userSpaceOnUse">
<stop offset="0.06" stop-color="#00F4FF" stop-opacity="0.8"/>
<stop offset="0.33" stop-color="#440BD4"/>
<stop offset="0.63" stop-color="#FF1987" stop-opacity="0.4"/>
</linearGradient>
<linearGradient id="paint20_linear_2008_4607" x1="126.213" y1="144.752" x2="128.334" y2="144.752" gradientUnits="userSpaceOnUse">
<stop offset="0.06" stop-color="#00F4FF" stop-opacity="0.8"/>
<stop offset="0.33" stop-color="#440BD4"/>
<stop offset="0.63" stop-color="#FF1987" stop-opacity="0.4"/>
</linearGradient>
<linearGradient id="paint21_linear_2008_4607" x1="51.4355" y1="148.384" x2="54.2019" y2="148.384" gradientUnits="userSpaceOnUse">
<stop offset="0.06" stop-color="#00F4FF" stop-opacity="0.8"/>
<stop offset="0.33" stop-color="#440BD4"/>
<stop offset="0.63" stop-color="#FF1987" stop-opacity="0.4"/>
</linearGradient>
<linearGradient id="paint22_linear_2008_4607" x1="55.51" y1="150.352" x2="58.156" y2="150.352" gradientUnits="userSpaceOnUse">
<stop offset="0.47" stop-color="#0000FF"/>
<stop offset="0.85" stop-color="#AD0BD4"/>
</linearGradient>
<linearGradient id="paint23_linear_2008_4607" x1="55.2598" y1="150.472" x2="58.4014" y2="150.472" gradientUnits="userSpaceOnUse">
<stop offset="0.54" stop-color="#440BD4"/>
<stop offset="0.82" stop-color="#FF00FF" stop-opacity="0.4"/>
</linearGradient>
<linearGradient id="paint24_linear_2008_4607" x1="60.7542" y1="152.536" x2="63.9583" y2="152.536" gradientUnits="userSpaceOnUse">
<stop offset="0.06" stop-color="#00F4FF" stop-opacity="0.8"/>
<stop offset="0.33" stop-color="#440BD4"/>
<stop offset="0.63" stop-color="#FF1987" stop-opacity="0.4"/>
</linearGradient>
<linearGradient id="paint25_linear_2008_4607" x1="60.6291" y1="152.584" x2="64.0978" y2="152.584" gradientUnits="userSpaceOnUse">
<stop offset="0.47" stop-color="#0000FF"/>
<stop offset="0.85" stop-color="#FF00FF"/>
</linearGradient>
<linearGradient id="paint26_linear_2008_4607" x1="151.349" y1="152.536" x2="154.702" y2="152.536" gradientUnits="userSpaceOnUse">
<stop offset="0.06" stop-color="#00F4FF" stop-opacity="0.8"/>
<stop offset="0.33" stop-color="#440BD4"/>
<stop offset="0.63" stop-color="#FF1987" stop-opacity="0.4"/>
</linearGradient>
<linearGradient id="paint27_linear_2008_4607" x1="151.214" y1="152.579" x2="154.827" y2="152.579" gradientUnits="userSpaceOnUse">
<stop offset="0.06" stop-color="#00F4FF" stop-opacity="0.8"/>
<stop offset="0.33" stop-color="#440BD4"/>
<stop offset="0.63" stop-color="#FF1987" stop-opacity="0.4"/>
</linearGradient>
<linearGradient id="paint28_linear_2008_4607" x1="157.137" y1="150.352" x2="159.533" y2="150.352" gradientUnits="userSpaceOnUse">
<stop offset="0.06" stop-color="#00F4FF" stop-opacity="0.8"/>
<stop offset="0.33" stop-color="#440BD4"/>
<stop offset="0.63" stop-color="#FF1987" stop-opacity="0.4"/>
</linearGradient>
<linearGradient id="paint29_linear_2008_4607" x1="157.012" y1="150.405" x2="159.658" y2="150.405" gradientUnits="userSpaceOnUse">
<stop offset="0.06" stop-color="#00F4FF" stop-opacity="0.8"/>
<stop offset="0.33" stop-color="#440BD4"/>
<stop offset="0.63" stop-color="#FF1987" stop-opacity="0.4"/>
</linearGradient>
<linearGradient id="paint30_linear_2008_4607" x1="161.039" y1="148.254" x2="164.051" y2="148.254" gradientUnits="userSpaceOnUse">
<stop offset="0.06" stop-color="#00F4FF" stop-opacity="0.8"/>
<stop offset="0.33" stop-color="#440BD4"/>
<stop offset="0.63" stop-color="#FF1987" stop-opacity="0.4"/>
</linearGradient>
<linearGradient id="paint31_linear_2008_4607" x1="160.909" y1="148.326" x2="164.176" y2="148.326" gradientUnits="userSpaceOnUse">
<stop offset="0.06" stop-color="#00F4FF" stop-opacity="0.8"/>
<stop offset="0.33" stop-color="#440BD4"/>
<stop offset="0.63" stop-color="#FF1987" stop-opacity="0.4"/>
</linearGradient>
<linearGradient id="paint32_linear_2008_4607" x1="71.6606" y1="159.286" x2="81.7252" y2="159.286" gradientUnits="userSpaceOnUse">
<stop offset="0.06" stop-color="#00F4FF" stop-opacity="0.8"/>
<stop offset="0.33" stop-color="#440BD4"/>
<stop offset="0.63" stop-color="#FF1987" stop-opacity="0.4"/>
</linearGradient>
<linearGradient id="paint33_linear_2008_4607" x1="71.5356" y1="159.3" x2="81.8551" y2="159.3" gradientUnits="userSpaceOnUse">
<stop offset="0.06" stop-color="#00F4FF" stop-opacity="0.8"/>
<stop offset="0.33" stop-color="#440BD4"/>
<stop offset="0.63" stop-color="#FF1987" stop-opacity="0.4"/>
</linearGradient>
<linearGradient id="paint34_linear_2008_4607" x1="69.5149" y1="144.809" x2="71.319" y2="144.809" gradientUnits="userSpaceOnUse">
<stop offset="0.06" stop-color="#00F4FF" stop-opacity="0.8"/>
<stop offset="0.33" stop-color="#440BD4"/>
<stop offset="0.63" stop-color="#FF1987" stop-opacity="0.4"/>
</linearGradient>
<linearGradient id="paint35_linear_2008_4607" x1="69.3946" y1="144.747" x2="71.4393" y2="144.747" gradientUnits="userSpaceOnUse">
<stop offset="0.06" stop-color="#00F4FF" stop-opacity="0.8"/>
<stop offset="0.33" stop-color="#440BD4"/>
<stop offset="0.63" stop-color="#FF1987" stop-opacity="0.4"/>
</linearGradient>
<linearGradient id="paint36_linear_2008_4607" x1="133.357" y1="159.286" x2="143.527" y2="159.286" gradientUnits="userSpaceOnUse">
<stop offset="0.06" stop-color="#00F4FF" stop-opacity="0.8"/>
<stop offset="0.33" stop-color="#440BD4"/>
<stop offset="0.63" stop-color="#FF1987" stop-opacity="0.4"/>
</linearGradient>
<linearGradient id="paint37_linear_2008_4607" x1="133.232" y1="159.286" x2="143.652" y2="159.286" gradientUnits="userSpaceOnUse">
<stop offset="0.06" stop-color="#00F4FF" stop-opacity="0.8"/>
<stop offset="0.33" stop-color="#440BD4"/>
<stop offset="0.63" stop-color="#FF1987" stop-opacity="0.4"/>
</linearGradient>
<linearGradient id="paint38_linear_2008_4607" x1="143.527" y1="144.809" x2="145.399" y2="144.809" gradientUnits="userSpaceOnUse">
<stop offset="0.06" stop-color="#00F4FF" stop-opacity="0.8"/>
<stop offset="0.33" stop-color="#440BD4"/>
<stop offset="0.63" stop-color="#FF1987" stop-opacity="0.4"/>
</linearGradient>
<linearGradient id="paint39_linear_2008_4607" x1="143.392" y1="144.752" x2="145.519" y2="144.752" gradientUnits="userSpaceOnUse">
<stop offset="0.06" stop-color="#00F4FF" stop-opacity="0.8"/>
<stop offset="0.33" stop-color="#440BD4"/>
<stop offset="0.63" stop-color="#FF1987" stop-opacity="0.4"/>
</linearGradient>
<linearGradient id="paint40_linear_2008_4607" x1="45.2196" y1="100.308" x2="45.2196" y2="98.3018" gradientUnits="userSpaceOnUse">
<stop offset="0.07" stop-color="#04005E"/>
<stop offset="0.42" stop-color="#440BD4"/>
<stop offset="0.78" stop-color="#FF1987"/>
</linearGradient>
<linearGradient id="paint41_linear_2008_4607" x1="45.2196" y1="116.131" x2="45.2196" y2="113.731" gradientUnits="userSpaceOnUse">
<stop offset="0.07" stop-color="#04005E"/>
<stop offset="0.42" stop-color="#440BD4"/>
<stop offset="0.78" stop-color="#FF1987"/>
</linearGradient>
<linearGradient id="paint42_linear_2008_4607" x1="35.5499" y1="92.1677" x2="41.4433" y2="92.1677" gradientUnits="userSpaceOnUse">
<stop offset="0.07" stop-color="#04005E"/>
<stop offset="0.42" stop-color="#440BD4"/>
<stop offset="0.78" stop-color="#FF1987"/>
</linearGradient>
<linearGradient id="paint43_linear_2008_4607" x1="43.752" y1="92.1677" x2="47.5142" y2="92.1677" gradientUnits="userSpaceOnUse">
<stop offset="0.07" stop-color="#04005E"/>
<stop offset="0.42" stop-color="#440BD4"/>
<stop offset="0.78" stop-color="#FF1987"/>
</linearGradient>
<linearGradient id="paint44_linear_2008_4607" x1="50.8482" y1="92.7643" x2="53.932" y2="92.7643" gradientUnits="userSpaceOnUse">
<stop offset="0.07" stop-color="#04005E"/>
<stop offset="0.42" stop-color="#440BD4"/>
<stop offset="0.78" stop-color="#FF1987"/>
</linearGradient>
<linearGradient id="paint45_linear_2008_4607" x1="43.0399" y1="107.765" x2="47.0955" y2="107.765" gradientUnits="userSpaceOnUse">
<stop offset="0.07" stop-color="#04005E"/>
<stop offset="0.42" stop-color="#440BD4"/>
<stop offset="0.78" stop-color="#FF1987"/>
</linearGradient>
<linearGradient id="paint46_linear_2008_4607" x1="35.6888" y1="109.723" x2="37.6613" y2="109.723" gradientUnits="userSpaceOnUse">
<stop offset="0.07" stop-color="#04005E"/>
<stop offset="0.42" stop-color="#440BD4"/>
<stop offset="0.78" stop-color="#FF1987"/>
</linearGradient>
<linearGradient id="paint47_linear_2008_4607" x1="37.421" y1="103.916" x2="39.5715" y2="103.916" gradientUnits="userSpaceOnUse">
<stop offset="0.07" stop-color="#04005E"/>
<stop offset="0.42" stop-color="#440BD4"/>
<stop offset="0.78" stop-color="#FF1987"/>
</linearGradient>
<linearGradient id="paint48_linear_2008_4607" x1="39.3304" y1="109.723" x2="41.4184" y2="109.723" gradientUnits="userSpaceOnUse">
<stop offset="0.07" stop-color="#04005E"/>
<stop offset="0.42" stop-color="#440BD4"/>
<stop offset="0.78" stop-color="#FF1987"/>
</linearGradient>
<linearGradient id="paint49_linear_2008_4607" x1="48.8663" y1="107.765" x2="52.5275" y2="107.765" gradientUnits="userSpaceOnUse">
<stop offset="0.07" stop-color="#04005E"/>
<stop offset="0.42" stop-color="#440BD4"/>
<stop offset="0.78" stop-color="#FF1987"/>
</linearGradient>
<linearGradient id="paint50_linear_2008_4607" x1="52.2867" y1="110.065" x2="54.4324" y2="110.065" gradientUnits="userSpaceOnUse">
<stop offset="0.07" stop-color="#04005E"/>
<stop offset="0.42" stop-color="#440BD4"/>
<stop offset="0.78" stop-color="#FF1987"/>
</linearGradient>
<linearGradient id="paint51_linear_2008_4607" x1="49.0969" y1="80.5973" x2="165.763" y2="80.5973" gradientUnits="userSpaceOnUse">
<stop offset="0.07" stop-color="#04005E"/>
<stop offset="0.42" stop-color="#440BD4"/>
<stop offset="0.78" stop-color="#FF1987"/>
</linearGradient>
<linearGradient id="paint52_linear_2008_4607" x1="169.954" y1="99.2062" x2="169.954" y2="97.2" gradientUnits="userSpaceOnUse">
<stop offset="0.07" stop-color="#04005E"/>
<stop offset="0.42" stop-color="#440BD4"/>
<stop offset="0.78" stop-color="#FF1987"/>
</linearGradient>
<linearGradient id="paint53_linear_2008_4607" x1="169.954" y1="115.03" x2="169.954" y2="112.629" gradientUnits="userSpaceOnUse">
<stop offset="0.07" stop-color="#04005E"/>
<stop offset="0.42" stop-color="#440BD4"/>
<stop offset="0.78" stop-color="#FF1987"/>
</linearGradient>
<linearGradient id="paint54_linear_2008_4607" x1="161.237" y1="91.0997" x2="167.135" y2="91.0997" gradientUnits="userSpaceOnUse">
<stop offset="0.07" stop-color="#04005E"/>
<stop offset="0.42" stop-color="#440BD4"/>
<stop offset="0.78" stop-color="#FF1987"/>
</linearGradient>
<linearGradient id="paint55_linear_2008_4607" x1="169.833" y1="90.9602" x2="173.591" y2="90.9602" gradientUnits="userSpaceOnUse">
<stop offset="0.07" stop-color="#04005E"/>
<stop offset="0.42" stop-color="#440BD4"/>
<stop offset="0.78" stop-color="#FF1987"/>
</linearGradient>
<linearGradient id="paint56_linear_2008_4607" x1="175.583" y1="91.6963" x2="178.666" y2="91.6963" gradientUnits="userSpaceOnUse">
<stop offset="0.07" stop-color="#04005E"/>
<stop offset="0.42" stop-color="#440BD4"/>
<stop offset="0.78" stop-color="#FF1987"/>
</linearGradient>
<linearGradient id="paint57_linear_2008_4607" x1="167.775" y1="106.687" x2="171.83" y2="106.687" gradientUnits="userSpaceOnUse">
<stop offset="0.07" stop-color="#04005E"/>
<stop offset="0.42" stop-color="#440BD4"/>
<stop offset="0.78" stop-color="#FF1987"/>
</linearGradient>
<linearGradient id="paint58_linear_2008_4607" x1="160.37" y1="108.987" x2="162.342" y2="108.987" gradientUnits="userSpaceOnUse">
<stop offset="0.07" stop-color="#04005E"/>
<stop offset="0.42" stop-color="#440BD4"/>
<stop offset="0.78" stop-color="#FF1987"/>
</linearGradient>
<linearGradient id="paint59_linear_2008_4607" x1="162.155" y1="103.185" x2="164.306" y2="103.185" gradientUnits="userSpaceOnUse">
<stop offset="0.07" stop-color="#04005E"/>
<stop offset="0.42" stop-color="#440BD4"/>
<stop offset="0.78" stop-color="#FF1987"/>
</linearGradient>
<linearGradient id="paint60_linear_2008_4607" x1="164.017" y1="108.987" x2="166.105" y2="108.987" gradientUnits="userSpaceOnUse">
<stop offset="0.07" stop-color="#04005E"/>
<stop offset="0.42" stop-color="#440BD4"/>
<stop offset="0.78" stop-color="#FF1987"/>
</linearGradient>
<linearGradient id="paint61_linear_2008_4607" x1="173.601" y1="106.687" x2="177.262" y2="106.687" gradientUnits="userSpaceOnUse">
<stop offset="0.07" stop-color="#04005E"/>
<stop offset="0.42" stop-color="#440BD4"/>
<stop offset="0.78" stop-color="#FF1987"/>
</linearGradient>
<linearGradient id="paint62_linear_2008_4607" x1="177.353" y1="108.987" x2="179.504" y2="108.987" gradientUnits="userSpaceOnUse">
<stop offset="0.07" stop-color="#04005E"/>
<stop offset="0.42" stop-color="#440BD4"/>
<stop offset="0.78" stop-color="#FF1987"/>
</linearGradient>
</defs>
</svg>
